<!DOCTYPE svg PUBLIC "-//W3C//DTD SVG 1.1//EN" "http://www.w3.org/Graphics/SVG/1.1/DTD/svg11.dtd">
<svg version="1.1" xmlns="http://www.w3.org/2000/svg" width="1280px" height="256px" viewBox="-2 -1.773 1278 254.227">
  <path fill="#4a4a4a" d="M125.469,244.68l-61.094-98.281c-6.98,0-18.022-0.521-33.125-1.563v99.844H0V15.774
    c1.145,0,9.243-0.391,24.297-1.172c15.051-0.781,26.016-1.172,32.891-1.172c55,0,82.5,21.875,82.5,65.625
    c0,14.375-4.429,27.319-13.281,38.828c-8.855,11.511-19.375,18.672-31.563,21.484L161.25,244.68H125.469z M31.25,43.899v74.375
    c7.5,1.042,14.79,1.563,21.875,1.563c18.75,0,32.395-3.02,40.938-9.063c8.54-6.04,12.813-16.821,12.813-32.344
    c0-12.813-4.585-22.031-13.75-27.656c-9.167-5.625-23.647-8.438-43.438-8.438C46.563,42.336,40.415,42.859,31.25,43.899z"/>
  <path fill="#4a4a4a" d="M174.375,234.211l11.406-28.75c5.833,4.272,13.098,7.839,21.797,10.703
    c8.696,2.866,16.484,4.297,23.359,4.297c12.188,0,21.978-3.333,29.375-10c7.395-6.665,11.094-15.156,11.094-25.469
    c0-7.708-2.058-14.868-6.172-21.484c-4.116-6.614-14.453-13.828-31.016-21.641l-18.438-8.594
    c-15.625-7.29-26.538-15.938-32.734-25.938c-6.199-10-9.297-22.031-9.297-36.094c0-17.083,6.04-31.25,18.125-42.5
    c12.083-11.25,27.603-16.875,46.563-16.875c25.313,0,42.915,4.116,52.813,12.344l-9.219,27.188
    c-4.167-3.02-10.522-5.938-19.063-8.75c-8.542-2.813-16.46-4.219-23.75-4.219c-10.625,0-18.984,3.022-25.078,9.063
    C208.047,53.535,205,61.296,205,70.774c0,5.835,1.094,11.147,3.281,15.938c2.188,4.792,5.234,8.804,9.141,12.031
    c3.906,3.23,11.899,7.761,23.984,13.594l18.75,8.906c15.625,7.397,26.587,16.226,32.891,26.484
    c6.301,10.261,9.453,23.308,9.453,39.141c0,17.188-6.902,31.772-20.703,43.75c-13.804,11.979-32.266,17.969-55.391,17.969
    C206.094,248.586,188.75,243.796,174.375,234.211z"/>
  <path fill="#4a4a4a" d="M328.281,234.211l11.406-28.75c5.833,4.272,13.098,7.839,21.797,10.703
    c8.696,2.866,16.484,4.297,23.359,4.297c12.188,0,21.978-3.333,29.375-10c7.395-6.665,11.094-15.156,11.094-25.469
    c0-7.708-2.058-14.868-6.172-21.484c-4.116-6.614-14.453-13.828-31.016-21.641l-18.438-8.594
    c-15.625-7.29-26.538-15.938-32.734-25.938c-6.199-10-9.297-22.031-9.297-36.094c0-17.083,6.04-31.25,18.125-42.5
    c12.083-11.25,27.603-16.875,46.563-16.875c25.313,0,42.915,4.116,52.813,12.344l-9.219,27.188
    c-4.167-3.02-10.522-5.938-19.063-8.75c-8.542-2.813-16.46-4.219-23.75-4.219c-10.625,0-18.984,3.022-25.078,9.063
    c-6.094,6.042-9.141,13.804-9.141,23.281c0,5.835,1.094,11.147,3.281,15.938c2.188,4.792,5.234,8.804,9.141,12.031
    c3.906,3.23,11.899,7.761,23.984,13.594l18.75,8.906c15.625,7.397,26.587,16.226,32.891,26.484
    c6.301,10.261,9.453,23.308,9.453,39.141c0,17.188-6.902,31.772-20.703,43.75c-13.804,11.979-32.266,17.969-55.391,17.969
    C360,248.586,342.656,243.796,328.281,234.211z"/>
  <path fill="#4a4a4a" d="M670.659,162.543l12.689,8.1c-0.54,1.08-2.16,2.16-3.779,2.43c-12.961,17.551-30.781,31.592-51.841,42.66
    c30.24,10.531,65.881,17.012,103.411,19.98c-3.78,4.051-8.1,11.342-10.53,16.201c-41.04-4.051-80.191-12.961-112.592-27
    c-33.21,13.77-72.361,22.141-112.321,27.27c-1.62-4.32-6.21-11.609-9.45-15.391c36.181-3.779,72.091-10.26,102.602-21.061
    c-15.12-8.369-28.621-18.09-39.421-29.43c-15.12,10.26-31.591,19.17-47.521,25.92c-2.7-3.24-8.37-8.639-12.15-11.609
    c31.86-12.15,66.151-33.75,86.132-58.051c-11.881-1.891-15.121-7.02-15.121-19.441V95.312l22.141,1.62
    c-0.27,1.89-1.62,3.24-5.13,3.51v22.68c0,5.4,1.89,6.48,13.771,6.48h42.391c8.91,0,10.8-2.16,11.61-19.17
    c3.51,2.43,10.26,4.32,14.85,5.4c-1.89,22.411-6.75,27.542-24.3,27.542h-52.111l12.96,5.129c-1.08,1.35-3.239,2.16-5.939,1.891
    c-3.78,4.32-7.83,8.641-12.421,12.961h88.832L670.659,162.543z M512.977,78.841v29.701h-17.28V63.721h49.141
    c-3.24-9.18-10.801-21.33-18.091-30.24l7.29-2.97l-29.7,0.81c-0.27-4.05-2.16-10.53-3.78-14.041
    c68.041-2.16,151.743-7.56,195.754-16.74l13.77,13.771c-0.54,0.54-1.62,0.81-2.7,0.81c-0.81,0-1.619-0.27-2.699-0.54
    c-25.65,4.86-61.831,8.91-100.442,11.88c6.751,9.99,12.69,22.411,14.851,31.051l-16.2,5.94c-1.89-9.72-8.91-24.3-16.2-35.101
    l2.43-0.81c-15.12,1.08-30.51,1.89-45.36,2.43c7.83,9.45,15.12,21.061,17.82,29.701l-8.91,4.05h100.712
    c8.91-11.07,19.979-28.351,26.19-39.96l19.979,8.91c-0.81,1.35-2.699,2.16-5.67,2.16c-5.399,8.37-13.5,19.44-21.601,28.891h48.331
    v46.441h-18.09V78.841H595.327c13.771,6.21,29.701,14.851,38.071,21.871l-9.721,11.34c-8.91-7.56-26.46-17.82-41.04-24.3l8.1-8.91
    H512.977z M547.807,100.982c-5.939,18.09-15.66,34.562-35.641,43.741l-12.42-11.07c17.55-7.291,28.351-21.871,33.48-37.801
    L547.807,100.982z M561.847,177.393v0.27c11.61,11.881,27.541,22.141,46.171,30.24c18.36-8.1,34.291-18.359,45.901-30.51H561.847z
     M703.6,143.102c-8.91-11.879-28.081-29.7-44.281-42.12l12.421-8.91c16.47,11.61,35.91,28.621,45.09,40.771L703.6,143.102z"/>
  <path fill="#4a4a4a" d="M846.157,56.971l10.26,2.7l-1.619,3.78c-3.78,47.791-12.421,86.131-25.921,116.102
    c13.23,10.26,24.57,20.25,31.86,29.43l-11.07,14.852c-6.75-8.641-17.01-18.361-28.891-28.08
    c-13.77,25.109-31.86,43.471-53.46,56.43c-2.431-4.59-7.561-11.07-11.341-14.85c20.251-10.801,37.261-28.352,50.761-52.65
    c-9.99-7.561-20.521-14.58-30.78-20.791l-3.24,11.881l-15.39-8.102c6.75-23.76,15.12-58.05,22.95-92.881h-27.001v-17.01h30.781
    c4.319-20.25,8.1-39.691,11.34-56.971l22.141,2.7c-0.271,1.89-1.891,2.97-5.4,3.24c-2.97,15.39-6.75,32.94-10.8,51.031h41.58
    L846.157,56.971z M797.557,74.792c-5.67,25.11-11.88,50.491-17.551,72.631c11.341,6.211,22.951,13.771,34.291,21.33
    c10.8-25.109,18.63-56.431,22.41-93.961H797.557z M1003.569,121.232v17.55h-65.07v89.373c0,20.789-8.101,24.029-55.892,23.49
    c-1.08-4.861-4.05-12.691-6.75-18.092c12.961,0.271,24.841,0.541,32.4,0.541c9.181,0,11.881,0,11.881-5.67v-89.643h-66.151v-17.55
    h66.151v-45.9l8.91,0.54c14.04-11.88,28.891-28.891,39.96-44.011H865.058v-17.01h117.722l3.51-1.08l14.311,8.91
    c-0.81,1.35-2.7,2.16-4.32,2.7c-14.04,19.98-37.261,45.63-57.78,62.371v33.48H1003.569z"/>
  <path fill="#4a4a4a" d="M1163.948,1.62c-0.811,2.16-2.971,3.51-5.67,4.05c26.46,36.721,75.331,72.901,117.722,91.261
    c-4.32,4.32-8.641,10.8-11.61,16.2c-42.931-21.06-91.531-58.051-117.452-94.501c-22.41,33.48-67.501,71.821-114.752,95.582
    c-2.159-3.78-6.75-10.8-10.53-14.58c47.521-22.95,94.232-63.451,115.563-99.632L1163.948,1.62z M1035.696,155.793v-17.281h226.533
    v17.281h-129.872l3.24,1.08c-0.811,1.889-2.97,2.699-6.48,2.969c-8.1,18.361-20.25,42.662-31.86,62.643
    c35.911-0.811,77.762-2.16,118.802-3.512c-12.15-14.039-26.19-28.619-39.69-40.5l15.391-8.369
    c25.38,21.869,52.65,51.57,65.341,72.09l-16.2,10.26c-3.51-5.67-7.83-12.148-13.23-18.9c-65.611,3.512-135.272,6.48-178.473,7.832
    c-0.54,2.43-2.16,3.51-4.32,3.779l-6.75-21.6c11.34,0,24.57-0.271,39.421-0.811c11.07-19.441,23.76-45.9,32.13-66.961H1035.696z
     M1081.867,86.132h130.951v17.01h-130.951V86.132z"/>
</svg>
