<?xml version="1.0" encoding="UTF-8" standalone="no"?>
<!DOCTYPE svg PUBLIC "-//W3C//DTD SVG 1.1//EN" "http://www.w3.org/Graphics/SVG/1.1/DTD/svg11.dtd">
<svg width="100%" height="100%" viewBox="0 0 1600 256" version="1.1" xmlns="http://www.w3.org/2000/svg" xmlns:xlink="http://www.w3.org/1999/xlink" xml:space="preserve" xmlns:serif="http://www.serif.com/" style="fill-rule:evenodd;clip-rule:evenodd;stroke-linejoin:round;stroke-miterlimit:2;">
    <g>
        <path d="M0.001,0L0,256L256,256L256,255.998C256,114.617 141.385,0 0.001,0Z" style="fill:rgb(227,112,45);fill-rule:nonzero;"/>
        <rect x="32" y="80" width="80" height="32" style="fill:white;"/>
        <rect x="32" y="136" width="128" height="32" style="fill:white;"/>
        <rect x="32" y="192" width="160" height="32" style="fill:white;"/>
    </g>
    <g transform="matrix(1,0,0,1,320,0)">
        <path d="M127.668,247.526L66.479,149.091C59.488,149.091 48.429,148.57 33.302,147.526L33.302,247.526L2.003,247.526L2.003,18.262C3.15,18.262 11.261,17.87 26.338,17.088C41.413,16.306 52.395,15.914 59.281,15.914C114.367,15.914 141.91,37.824 141.91,81.642C141.91,96.04 137.474,109.004 128.608,120.531C119.739,132.06 109.203,139.232 96.996,142.048L163.505,247.526L127.668,247.526ZM33.302,46.431L33.302,120.922C40.814,121.966 48.115,122.488 55.211,122.488C73.991,122.488 87.657,119.463 96.213,113.411C104.767,107.361 109.046,96.563 109.046,81.016C109.046,68.183 104.454,58.951 95.275,53.317C86.094,47.683 71.591,44.866 51.769,44.866C48.639,44.866 42.481,45.389 33.302,46.431Z" style="fill:rgb(74,74,74);fill-rule:nonzero;"/>
    </g>
    <g transform="matrix(1,0,0,1,320,0)">
        <path d="M176.651,237.041L188.075,208.246C193.917,212.525 201.193,216.097 209.906,218.966C218.616,221.836 226.416,223.269 233.302,223.269C245.509,223.269 255.314,219.931 262.723,213.254C270.129,206.578 273.834,198.074 273.834,187.745C273.834,180.025 271.773,172.854 267.652,166.227C263.53,159.603 253.177,152.378 236.588,144.552L218.121,135.945C202.471,128.644 191.541,119.982 185.336,109.966C179.127,99.951 176.024,87.901 176.024,73.816C176.024,56.706 182.073,42.517 194.177,31.249C206.279,19.982 221.824,14.348 240.813,14.348C266.166,14.348 283.795,18.47 293.709,26.711L284.475,53.942C280.302,50.917 273.937,47.994 265.383,45.178C256.827,42.361 248.897,40.952 241.595,40.952C230.954,40.952 222.582,43.979 216.478,50.03C210.376,56.082 207.324,63.855 207.324,73.348C207.324,79.192 208.42,84.513 210.61,89.311C212.802,94.111 215.852,98.129 219.765,101.361C223.677,104.596 231.683,109.134 243.787,114.976L262.566,123.896C278.216,131.305 289.195,140.147 295.509,150.422C301.82,160.699 304.977,173.766 304.977,189.624C304.977,206.839 298.064,221.446 284.241,233.442C270.416,245.44 251.925,251.439 228.763,251.439C208.42,251.438 191.049,246.641 176.651,237.041Z" style="fill:rgb(74,74,74);fill-rule:nonzero;"/>
    </g>
    <g transform="matrix(1,0,0,1,320,0)">
        <path d="M330.798,237.041L342.222,208.246C348.064,212.525 355.34,216.097 364.053,218.966C372.762,221.836 380.563,223.269 387.448,223.269C399.655,223.269 409.461,219.931 416.869,213.254C424.276,206.578 427.981,198.074 427.981,187.745C427.981,180.025 425.919,172.854 421.799,166.227C417.677,159.603 407.323,152.378 390.735,144.552L372.268,135.945C356.618,128.644 345.688,119.982 339.482,109.966C333.274,99.951 330.171,87.901 330.171,73.816C330.171,56.706 336.22,42.517 348.324,31.249C360.426,19.982 375.97,14.348 394.96,14.348C420.313,14.348 437.942,18.47 447.856,26.711L438.622,53.942C434.449,50.917 428.084,47.994 419.53,45.178C410.974,42.361 403.044,40.952 395.742,40.952C385.101,40.952 376.729,43.979 370.625,50.03C364.522,56.081 361.47,63.855 361.47,73.347C361.47,79.191 362.566,84.512 364.756,89.31C366.947,94.11 369.998,98.128 373.911,101.36C377.823,104.595 385.829,109.133 397.933,114.975L416.712,123.895C432.362,131.304 443.341,140.146 449.655,150.421C455.965,160.698 459.122,173.765 459.122,189.623C459.122,206.838 452.21,221.445 438.387,233.441C424.561,245.439 406.07,251.438 382.909,251.438C362.567,251.438 345.195,246.641 330.798,237.041Z" style="fill:rgb(74,74,74);fill-rule:nonzero;"/>
    </g>
    <g transform="matrix(1,0,0,1,320,0)">
        <path d="M673.712,165.261L686.421,173.373C685.88,174.455 684.257,175.537 682.636,175.807C669.654,193.386 651.806,207.449 630.713,218.534C661.001,229.081 696.698,235.573 734.286,238.545C730.5,242.603 726.174,249.905 723.74,254.772C682.636,250.714 643.423,241.79 610.972,227.729C577.71,241.521 538.497,249.905 498.475,255.042C496.852,250.715 492.255,243.415 489.01,239.627C525.248,235.842 561.214,229.351 591.773,218.533C576.629,210.151 563.107,200.415 552.29,189.057C537.146,199.333 520.65,208.257 504.695,215.017C501.99,211.772 496.311,206.365 492.526,203.39C524.435,191.221 558.78,169.587 578.792,145.248C566.893,143.354 563.648,138.217 563.648,125.777L563.648,97.925L585.823,99.547C585.553,101.44 584.201,102.792 580.685,103.063L580.685,125.778C580.685,131.186 582.578,132.268 594.478,132.268L636.935,132.268C645.859,132.268 647.752,130.105 648.563,113.068C652.079,115.502 658.839,117.395 663.437,118.477C661.544,140.923 656.676,146.062 639.099,146.062L586.906,146.062L599.886,151.199C598.805,152.551 596.642,153.362 593.938,153.093C590.152,157.419 586.096,161.747 581.498,166.074L670.469,166.074L673.712,165.261ZM515.783,81.428L515.783,111.175L498.476,111.175L498.476,66.284L547.694,66.284C544.449,57.09 536.876,44.921 529.574,35.997L536.876,33.022L507.129,33.833C506.859,29.777 504.966,23.287 503.343,19.77C571.491,17.607 655.324,12.199 699.404,3.004L713.195,16.797C712.655,17.338 711.573,17.608 710.491,17.608C709.68,17.608 708.87,17.338 707.788,17.067C682.098,21.935 645.86,25.991 607.189,28.966C613.95,38.971 619.899,51.412 622.063,60.065L605.838,66.015C603.945,56.279 596.914,41.677 589.612,30.859L592.046,30.047C576.902,31.129 561.488,31.94 546.615,32.481C554.457,41.946 561.759,53.575 564.463,62.229L555.539,66.285L656.409,66.285C665.333,55.198 676.419,37.89 682.64,26.263L702.65,35.186C701.839,36.539 699.947,37.35 696.971,37.35C691.564,45.733 683.45,56.82 675.336,66.286L723.743,66.286L723.743,112.8L705.625,112.8L705.625,81.428L598.262,81.428C612.054,87.647 628.009,96.302 636.392,103.333L626.656,114.691C617.732,107.119 600.155,96.843 585.552,90.353L593.665,81.429L515.783,81.429L515.783,81.428ZM550.667,103.603C544.719,121.722 534.983,138.219 514.971,147.413L502.531,136.326C520.109,129.023 530.927,114.42 536.064,98.465L550.667,103.603ZM564.729,180.134L564.729,180.404C576.358,192.304 592.313,202.58 610.973,210.692C629.361,202.579 645.317,192.304 656.945,180.134L564.729,180.134ZM706.704,145.789C697.78,133.892 678.579,116.043 662.354,103.603L674.794,94.679C691.29,106.308 710.761,123.345 719.955,135.514L706.704,145.789Z" style="fill:rgb(74,74,74);fill-rule:nonzero;"/>
    </g>
    <g transform="matrix(1,0,0,1,320,0)">
        <path d="M849.484,59.524L859.76,62.228L858.139,66.014C854.353,113.879 845.698,152.279 832.177,182.297C845.428,192.573 856.786,202.579 864.087,211.773L853,226.649C846.239,217.994 835.963,208.259 824.064,198.525C810.272,223.673 792.154,242.064 770.52,255.043C768.085,250.446 762.947,243.956 759.161,240.17C779.444,229.352 796.481,211.773 810.002,187.437C799.996,179.865 789.449,172.835 779.173,166.614L775.928,178.513L760.514,170.399C767.275,146.602 775.658,112.258 783.5,77.372L756.457,77.372L756.457,60.336L787.286,60.336C791.612,40.054 795.399,20.583 798.644,3.276L820.82,5.98C820.548,7.873 818.926,8.954 815.411,9.225C812.436,24.639 808.651,42.216 804.594,60.336L846.239,60.336L849.484,59.524ZM800.808,77.372C795.129,102.522 788.91,127.942 783.23,150.117C794.589,156.338 806.217,163.91 817.574,171.48C828.391,146.332 836.234,114.961 840.02,77.372L800.808,77.372ZM1007.14,123.884L1007.14,141.463L941.971,141.463L941.971,230.975C941.971,251.797 933.857,255.042 885.991,254.502C884.91,249.634 881.935,241.791 879.231,236.382C892.212,236.653 904.111,236.924 911.682,236.924C920.877,236.924 923.581,236.924 923.581,231.245L923.581,141.462L857.327,141.462L857.327,123.884L923.581,123.884L923.581,77.912L932.505,78.453C946.567,66.554 961.441,49.517 972.528,34.373L868.415,34.373L868.415,17.337L986.321,17.337L989.837,16.255L1004.17,25.179C1003.36,26.531 1001.47,27.342 999.843,27.883C985.781,47.894 962.524,73.584 941.973,90.352L941.973,123.884L1007.14,123.884Z" style="fill:rgb(74,74,74);fill-rule:nonzero;"/>
    </g>
    <g transform="matrix(1,0,0,1,320,0)">
        <path d="M1167.77,4.086C1166.96,6.249 1164.8,7.601 1162.09,8.142C1188.6,44.921 1237.54,81.157 1280,99.546C1275.67,103.873 1271.35,110.363 1268.37,115.771C1225.37,94.678 1176.7,57.63 1150.74,21.123C1128.29,54.655 1083.13,93.056 1035.8,116.854C1033.64,113.068 1029.04,106.037 1025.26,102.251C1072.85,79.265 1119.64,38.701 1141,2.463L1167.77,4.086ZM1039.32,158.5L1039.32,141.192L1266.21,141.192L1266.21,158.5L1136.13,158.5L1139.38,159.582C1138.57,161.474 1136.4,162.285 1132.89,162.555C1124.77,180.945 1112.61,205.284 1100.98,225.297C1136.94,224.484 1178.86,223.133 1219.96,221.779C1207.8,207.718 1193.73,193.115 1180.21,181.216L1195.63,172.834C1221.05,194.737 1248.36,224.484 1261.07,245.036L1244.85,255.312C1241.33,249.634 1237,243.145 1231.6,236.383C1165.88,239.9 1096.11,242.873 1052.84,244.227C1052.3,246.661 1050.68,247.743 1048.52,248.012L1041.76,226.378C1053.11,226.378 1066.36,226.107 1081.24,225.566C1092.33,206.095 1105.04,179.594 1113.42,158.5L1039.32,158.5ZM1085.56,88.73L1216.72,88.73L1216.72,105.767L1085.56,105.767L1085.56,88.73Z" style="fill:rgb(74,74,74);fill-rule:nonzero;"/>
    </g>
</svg>
